<svg width="14" height="14" viewBox="0 0 14 14" fill="none" xmlns="http://www.w3.org/2000/svg">
<path fill-rule="evenodd" clip-rule="evenodd" d="M0.941934 0.940321C1.22382 0.658397 1.60615 0.5 2.00483 0.5C2.4035 0.5 2.78584 0.658397 3.06772 0.940321L7 4.88233L10.9319 0.940733C11.2138 0.658809 11.5965 0.5 11.9952 0.5C12.3938 0.5 12.7762 0.658397 13.0581 0.940321C13.3399 1.22224 13.4983 1.6046 13.4983 2.00326C13.4983 2.40193 13.3399 2.78429 13.0581 3.06621L9.11652 6.99915L13.0566 10.9306C13.1969 11.0699 13.3087 11.236 13.3847 11.4185C13.4608 11.6012 13.5 11.7971 13.5 11.995C13.5 12.1929 13.4608 12.3889 13.3847 12.5716C13.3089 12.7536 13.1979 12.9189 13.0581 13.0579C12.919 13.1978 12.7538 13.3088 12.5717 13.3847C12.389 13.4608 12.1931 13.5 11.9952 13.5C11.7973 13.5 11.6013 13.4608 11.4187 13.3847C11.2361 13.3086 11.0705 13.1972 10.9312 13.0569L7 9.11597L3.06917 13.0565C2.92992 13.1968 2.76381 13.3087 2.58134 13.3847C2.39867 13.4608 2.20273 13.5 2.00483 13.5C1.80693 13.5 1.61099 13.4608 1.42831 13.3847C1.24626 13.3088 1.08098 13.1978 0.941932 13.058C0.802119 12.9189 0.691113 12.7536 0.615277 12.5716C0.539179 12.3889 0.5 12.1929 0.5 11.995C0.5 11.7971 0.539179 11.6012 0.615277 11.4185C0.691285 11.236 0.802623 11.0704 0.942885 10.9311L4.88348 6.99915L0.942346 3.06662C0.660464 2.7847 0.501705 2.40193 0.501705 2.00326C0.501705 1.6046 0.660052 1.22224 0.941934 0.940321Z" fill="#DF1111"/>
</svg>
